<?xml version="1.0" encoding="UTF-8"?>
<svg version="1.1" xmlns="http://www.w3.org/2000/svg" width="294" height="342">
<path d="M0 0 C0.62777344 0.59167969 1.25554687 1.18335937 1.90234375 1.79296875 C11.87569325 12.03770191 17.49474168 27.30959383 18.56640625 41.328125 C18.64963135 42.39450195 18.73285645 43.46087891 18.81860352 44.55957031 C18.87846436 45.36491211 18.9383252 46.17025391 19 47 C19.78536133 46.97381592 20.57072266 46.94763184 21.37988281 46.9206543 C25.00304451 46.81551553 28.62588384 46.75130486 32.25 46.6875 C33.48492187 46.64560547 34.71984375 46.60371094 35.9921875 46.56054688 C45.78465569 46.43169861 54.38504595 48.29793311 62.375 54.25 C72.98619736 65.36649248 74.66238448 78.08257052 76.4519043 92.71850586 C76.67818539 94.51336089 76.90524709 96.30811766 77.13302612 98.1027832 C77.7469243 102.95967953 78.34910878 107.81796022 78.94855094 112.67665935 C79.45182743 116.74686912 79.96092637 120.81634195 80.47002345 124.88582712 C81.67266904 134.49976589 82.86589055 144.11484163 84.05297852 153.73071289 C85.27283182 163.61083784 86.50733904 173.48905064 87.74938458 183.36640829 C88.81910185 191.87705396 89.88012997 200.38875219 90.93425304 208.90134341 C91.56217504 213.97173552 92.19310412 219.04170234 92.83218956 224.11070061 C93.43399238 228.88741521 94.02478668 233.66537338 94.60764694 238.44443512 C94.82152725 240.18375526 95.03903563 241.92263438 95.26074028 243.6609745 C96.36957053 252.37324116 97.1847424 260.98448806 97.23054504 269.77394104 C97.23934331 270.87109118 97.23934331 270.87109118 97.24831933 271.99040598 C97.13874598 285.47390398 90.25540858 297.23078984 81.25390625 306.8984375 C67.79223665 319.45021955 52.84443525 320.59640647 35.39892578 320.53344727 C33.33122139 320.54051522 31.26352216 320.5492639 29.1958313 320.55955505 C23.60891763 320.58196133 18.02228844 320.57912964 12.43534708 320.57023358 C7.75865748 320.56510491 3.08202045 320.57243155 -1.59466374 320.57970566 C-12.63395716 320.59667716 -23.67311225 320.59316685 -34.71240234 320.57641602 C-46.07326092 320.55949933 -57.43373512 320.57532952 -68.79455173 320.6076389 C-78.5750028 320.63439254 -88.35533464 320.64159514 -98.1358186 320.63312382 C-103.96564144 320.62821124 -109.79523317 320.63031957 -115.6250267 320.65091133 C-121.1098464 320.66935906 -126.59411628 320.66319888 -132.07890701 320.63871193 C-134.08228028 320.63373272 -136.08569611 320.63711787 -138.08903503 320.64986038 C-156.17961004 320.75575253 -169.48124267 317.5571915 -183.24609375 304.94140625 C-192.4975873 295.41009437 -197.43154599 282.3458629 -197.24824524 269.12797546 C-197.24232245 268.39611045 -197.23639966 267.66424543 -197.23029739 266.91020268 C-197.08508121 258.523574 -196.08563153 250.26408152 -195.02807617 241.95239258 C-194.8153315 240.21903411 -194.60348019 238.48556581 -194.3924408 236.7519989 C-193.82320368 232.09811428 -193.24120605 227.44591137 -192.65635467 222.79396653 C-192.04241227 217.8953555 -191.43938025 212.99539959 -190.83479309 208.09562683 C-189.81879241 199.87510776 -188.79468796 191.65563053 -187.76538086 183.43676758 C-186.57963467 173.96816076 -185.40558582 164.49816118 -184.23804873 155.02729303 C-183.10887389 145.86902578 -181.97255347 136.71165967 -180.83263588 127.55472374 C-180.35015911 123.67856769 -179.86991935 119.80214453 -179.39150047 115.92548561 C-178.82686685 111.35357647 -178.2558632 106.78250434 -177.6801548 102.21197701 C-177.47125519 100.54588814 -177.26440158 98.8795411 -177.05987549 97.2129097 C-172.86032791 63.03781172 -172.86032791 63.03781172 -161.1875 53.5625 C-151.7022461 47.48297318 -143.55847424 46.45054549 -132.375 46.75 C-130.43947266 46.77707031 -130.43947266 46.77707031 -128.46484375 46.8046875 C-125.30910302 46.85143921 -122.15495899 46.91695795 -119 47 C-118.87044922 45.38544922 -118.87044922 45.38544922 -118.73828125 43.73828125 C-117.01565735 24.92142847 -110.25677807 10.53152995 -97 -3 C-96.40832031 -3.62777344 -95.81664063 -4.25554688 -95.20703125 -4.90234375 C-86.62031085 -13.26160136 -73.68050484 -18.8860436 -62 -21 C-61.18015625 -21.15210937 -60.3603125 -21.30421875 -59.515625 -21.4609375 C-36.74454686 -24.56608452 -16.08886405 -15.76218661 0 0 Z M-78.234375 27.32421875 C-82.08586304 33.16109775 -84 40.04149736 -84 47 C-61.56 47 -39.12 47 -16 47 C-17.41099858 34.30101274 -21.20993715 26.25325792 -31.25 18.1875 C-47.17556796 7.59431322 -66.60837649 13.70715357 -78.234375 27.32421875 Z " fill="#232021" transform="translate(197,22)"/>
<path d="M0 0 C9.57 0 19.14 0 29 0 C29.495 4.95 29.495 4.95 30 10 C34.1288728 21.32524149 40.16561093 29.58280546 51 35 C52.093125 35.556875 53.18625 36.11375 54.3125 36.6875 C58.92888704 38.49675033 58.92888704 38.49675033 68 39 C67.67 48.24 67.34 57.48 67 67 C51.98320896 67 51.98320896 67 45.8125 64.375 C45.19181641 64.13910156 44.57113281 63.90320313 43.93164062 63.66015625 C39.97437289 62.0837166 36.38948547 60.09036592 32.7487793 57.88134766 C31.85692429 57.34160309 30.96506927 56.80185852 30.04618835 56.24575806 C29.3709462 55.8346579 28.69570404 55.42355774 28 55 C28.00888245 55.81273376 28.01776489 56.62546753 28.0269165 57.46282959 C28.10749289 65.17031784 28.16818097 72.87759817 28.20724869 80.58539963 C28.22800994 84.54686388 28.25611381 88.50797639 28.30175781 92.46923828 C28.34563014 96.30128624 28.36922298 100.13299864 28.37950897 103.96527863 C28.38682697 105.41794355 28.40111443 106.8705928 28.42292023 108.32311249 C28.65057342 124.1348234 24.43112422 136.94498282 14 149 C0.52834052 160.36267765 -12.42538459 165.23466014 -30 164 C-44.20091704 161.79135191 -56.66550409 154.9553785 -65.26123047 143.28808594 C-74.12216718 129.95054938 -76.87849224 116.63286033 -74.53125 100.84765625 C-71.26438074 87.29403793 -63.00880988 75.67474597 -51.375 68.0625 C-40.60285864 61.68898303 -30.57346978 59.15653791 -18 60 C-17.01 60.495 -17.01 60.495 -16 61 C-16 70.24 -16 79.48 -16 89 C-18.289375 89.04125 -20.57875 89.0825 -22.9375 89.125 C-29.95145488 89.47717461 -34.98066563 90.93720819 -40 96 C-44.496132 101.75591777 -46.43594148 106.92417629 -46.33984375 114.23828125 C-45.5443269 120.70299862 -42.32977972 126.13529057 -37.5625 130.5 C-32.84196046 134.10144612 -28.19887156 135.51090763 -22.20703125 135.3046875 C-14.50970183 134.24204733 -9.27496255 131.02237058 -4.375 125.09765625 C-1.77984276 121.13856694 -0.75166015 117.63481302 -0.7215271 112.91899109 C-0.71036362 111.91924759 -0.69920013 110.91950409 -0.68769836 109.88946533 C-0.68553818 108.80405457 -0.68337799 107.7186438 -0.68115234 106.6003418 C-0.67110672 105.44869034 -0.6610611 104.29703888 -0.65071106 103.11048889 C-0.61983887 99.30673722 -0.60283241 95.50305607 -0.5859375 91.69921875 C-0.56722913 89.06076957 -0.54765597 86.42232639 -0.5272522 83.78388977 C-0.48050859 77.55088024 -0.44374317 71.31785355 -0.41057932 65.08475858 C-0.37232665 57.98677719 -0.32292476 50.88888703 -0.27259517 43.7909826 C-0.16934106 29.19405371 -0.0815312 14.59706686 0 0 Z " fill="#FCFDFD" transform="translate(146,120)"/>
<path d="M0 0 C2.97 0 5.94 0 9 0 C9 9.57 9 19.14 9 29 C-6.82902584 27.8693553 -6.82902584 27.8693553 -12.1875 25.8125 C-13.23292969 25.42707031 -14.27835937 25.04164063 -15.35546875 24.64453125 C-18.58136383 23.18890228 -21.62857291 21.60031143 -24.7277832 19.8972168 C-25.7158345 19.35518112 -26.7038858 18.81314545 -27.72187805 18.25468445 C-28.47365829 17.84063858 -29.22543854 17.42659271 -30 17 C-29.99000725 18.10634796 -29.99000725 18.10634796 -29.97981262 19.23504639 C-29.91933283 26.23616253 -29.87384023 33.23718594 -29.84456348 40.23849106 C-29.82900525 43.83668039 -29.80795087 47.43465121 -29.77368164 51.03271484 C-29.74073184 54.5146215 -29.7230733 57.99631996 -29.71536827 61.47837067 C-29.70724757 63.43232601 -29.68388728 65.38619931 -29.66011047 67.34002686 C-29.65716481 83.2044733 -34.04610674 98.28066458 -44.96484375 110.1328125 C-56.66497353 121.26168821 -71.4118066 125.73323562 -87.33203125 125.34375 C-97.54638458 124.38649431 -106.66564061 119.85034022 -115 114 C-115.66 113.01 -116.32 112.02 -117 111 C-112.98001007 112.30649673 -109.04499426 113.74024189 -105.125 115.31640625 C-93.09826698 119.18530015 -79.82716717 117.69071436 -68.5703125 112.3828125 C-63.35467205 109.67625521 -59.12197852 107.19574995 -55 103 C-54.34 103 -53.68 103 -53 103 C-52.72929687 102.42507813 -52.45859375 101.85015625 -52.1796875 101.2578125 C-50.98534811 98.97195764 -49.62010695 96.97434706 -48.125 94.875 C-42.79446706 86.98998184 -39.91952673 78.88403111 -39.79467773 69.39550781 C-39.78477814 68.74143448 -39.77487854 68.08736115 -39.76467896 67.41346741 C-39.73319149 65.26005626 -39.70835728 63.10662308 -39.68359375 60.953125 C-39.66301319 59.45667968 -39.64201643 57.96024004 -39.62062073 56.46380615 C-39.56551382 52.53147991 -39.51605453 48.59910219 -39.46777344 44.66668701 C-39.41747514 40.65144284 -39.36183261 36.63627311 -39.30664062 32.62109375 C-39.19919832 24.74745884 -39.09772264 16.87376151 -39 9 C-38.40018311 9.30107666 -37.80036621 9.60215332 -37.18237305 9.91235352 C-24.43718854 16.26427174 -14.26909896 20.24899479 0 21 C0 14.07 0 7.14 0 0 Z " fill="#F73258" transform="translate(213,166)"/>
<path d="M0 0 C9.57 0 19.14 0 29 0 C29 2.31 29 4.62 29 7 C22.07 7 15.14 7 8 7 C8.00666183 8.46276871 8.01332367 9.92553741 8.02018738 11.43263245 C8.08100878 25.21945273 8.12615801 39.00626259 8.15543652 52.79318333 C8.17088966 59.88113871 8.19194932 66.96899378 8.22631836 74.05688477 C8.25947197 80.89739367 8.27685488 87.73779829 8.28463173 94.57838249 C8.29017374 97.18786191 8.30099585 99.79733565 8.31719017 102.40677071 C8.33897448 106.06240274 8.34196642 109.71760449 8.34057617 113.37329102 C8.351362 114.45151123 8.36214783 115.52973145 8.3732605 116.640625 C8.33869198 125.04381507 6.61273065 131.08749403 0.86328125 137.421875 C-3.98447927 141.52773506 -10.56648213 143.76132524 -16.921875 143.38671875 C-22.65745392 142.31938357 -27.57294988 140.49500488 -31.625 136.25 C-32.305625 135.13625 -32.305625 135.13625 -33 134 C-32.34 134.165 -31.68 134.33 -31 134.5 C-23.146497 135.80891717 -16.93676945 135.04926867 -10 131 C-5.20714559 126.77204924 -1.433812 122.07449515 -0.73828697 115.54191113 C-0.72999084 114.24356571 -0.72999084 114.24356571 -0.7215271 112.91899109 C-0.71036362 111.91924759 -0.69920013 110.91950409 -0.68769836 109.88946533 C-0.68553818 108.80405457 -0.68337799 107.7186438 -0.68115234 106.6003418 C-0.66608391 104.87286461 -0.66608391 104.87286461 -0.65071106 103.11048889 C-0.61983887 99.30673722 -0.60283241 95.50305607 -0.5859375 91.69921875 C-0.56722913 89.06076957 -0.54765597 86.42232639 -0.5272522 83.78388977 C-0.48050859 77.55088024 -0.44374317 71.31785355 -0.41057932 65.08475858 C-0.37232665 57.98677719 -0.32292476 50.88888703 -0.27259517 43.7909826 C-0.16934106 29.19405371 -0.0815312 14.59706686 0 0 Z " fill="#25EDE7" transform="translate(146,120)"/>
<path d="M0 0 C0 2.31 0 4.62 0 7 C-0.90621094 7.09796875 -1.81242187 7.1959375 -2.74609375 7.296875 C-18.26707238 9.20209566 -31.07673425 15.56428628 -41 28 C-48.9197509 41.03364719 -52.31486257 54.20209247 -49.3125 69.50390625 C-47.46969801 76.0074616 -44.85719908 81.4776062 -41.07421875 87.07421875 C-40.71972656 87.70972656 -40.36523438 88.34523438 -40 89 C-40.33 89.66 -40.66 90.32 -41 91 C-50.19109676 82.95779033 -58.14208931 70.51615056 -59.15527344 58.09667969 C-60.0695832 41.81289836 -56.53509046 28.42912754 -45.8125 15.75 C-36.26385433 5.62167264 -14.49646847 -7.24823424 0 0 Z " fill="#27EEE9" transform="translate(130,181)"/>
<path d="M0 0 C2.64 0 5.28 0 8 0 C8 9.57 8 19.14 8 29 C3.38 29 -1.24 29 -6 29 C-13.37938137 31.62827282 -17.01821165 35.37811095 -20.8125 42.3125 C-23.33787967 50.15446845 -21.98734962 56.47828042 -19 64 C-24.3335718 61.58800256 -27.03127618 57.73702202 -29.8125 52.75 C-31.97396595 45.92431805 -31.9300152 40.31773139 -28.9375 33.75 C-26.40306678 29.17073998 -23.3583144 25.88604264 -19 23 C-18.42894531 22.62101562 -17.85789062 22.24203125 -17.26953125 21.8515625 C-13.96129252 20.61026122 -10.72738041 20.79020415 -7.25 20.875 C-4.8575 20.91625 -2.465 20.9575 0 21 C0 14.07 0 7.14 0 0 Z " fill="#FA2E56" transform="translate(130,188)"/>
<path d="M0 0 C2.64 0 5.28 0 8 0 C8.08636719 0.75023438 8.17273438 1.50046875 8.26171875 2.2734375 C9.17993877 8.96212278 10.7058156 14.17519449 14.07421875 20.0390625 C14.37972656 20.68617188 14.68523437 21.33328125 15 22 C14.67 22.66 14.34 23.32 14 24 C6.994982 18.11507371 3.10248269 11.59058653 0 3 C0 2.01 0 1.02 0 0 Z " fill="#F02F54" transform="translate(175,127)"/>
<path d="M0 0 C0.53367188 0.20496094 1.06734375 0.40992188 1.6171875 0.62109375 C7.41395572 2.717157 12.85732066 3.62810501 19 4 C19 6.31 19 8.62 19 11 C11.85178015 9.29875352 5.61987307 6.87327158 0 2 C0 1.34 0 0.68 0 0 Z " fill="#2CE3DE" transform="translate(195,155)"/>
<path d="M0 0 C0.66 0.33 1.32 0.66 2 1 C-1.3 4.3 -4.6 7.6 -8 11 C-8 7.0234755 -6.61988497 5.9109833 -4 3 C-1.75 1.1875 -1.75 1.1875 0 0 Z " fill="#504E4F" transform="translate(38,74)"/>
</svg>
